<svg width="155" height="155" viewBox="0 0 155 155" fill="none" xmlns="http://www.w3.org/2000/svg">
<g clip-path="url(#clip0)">
<path d="M155 64.5832C155 46.7785 140.513 32.2915 122.708 32.2915C122.095 32.2915 121.459 32.4189 120.851 32.4731C115.335 13.7314 98.0039 0 77.5 0C62.1402 0 48.5653 7.71458 40.3914 19.4567C39.8444 19.4307 39.3055 19.375 38.75 19.375C17.3821 19.375 0 36.7571 0 58.125C0 77.4055 14.4086 99.5239 33.7628 102.858L32.6323 105.118C32.131 106.118 32.1846 107.307 32.7743 108.259C33.2938 109.098 34.182 109.574 35.1463 109.694C34.6894 111.581 33.8508 112.934 32.8343 114.459C31.1532 116.978 29.0625 120.116 29.0625 125.938C29.0625 131.759 31.1532 134.897 32.834 137.416C34.3349 139.668 35.5207 141.447 35.5207 145.312C35.5207 147.097 36.9651 148.542 38.75 148.542C40.5349 148.542 41.9793 147.097 41.9793 145.312C41.9793 139.491 39.8886 136.353 38.2078 133.834C36.7068 131.582 35.521 129.803 35.521 125.938C35.521 122.071 36.7068 120.293 38.2078 118.041C39.5401 116.044 41.085 113.595 41.6868 109.792H41.9793C43.0988 109.792 44.1363 109.211 44.726 108.259C45.3157 107.307 45.3693 106.118 44.868 105.118L43.7339 102.85C50.1734 101.725 56.4248 98.4592 61.8741 93.3333C64.9144 94.7313 68.1158 95.7512 71.4647 96.3134L65.2302 104.627C64.4954 105.604 64.3786 106.913 64.9244 108.007C65.4733 109.102 66.5895 109.792 67.8131 109.792H74.0298C73.5878 112.538 72.5866 114.304 71.468 116.263C69.7551 119.262 67.8125 122.658 67.8125 129.167C67.8125 135.676 69.7551 139.072 71.4674 142.071C72.9717 144.704 74.2707 146.978 74.2707 151.771C74.2707 153.556 75.7151 155 77.5 155C79.2849 155 80.7293 153.556 80.7293 151.771C80.7293 145.262 78.7866 141.866 77.0744 138.867C75.5701 136.234 74.271 133.96 74.271 129.167C74.271 124.373 75.5704 122.1 77.0744 119.467C78.4681 117.025 79.9567 114.224 80.4837 109.792H87.1875C88.4112 109.792 89.5273 109.101 90.0762 108.007C90.6217 106.912 90.5052 105.604 89.7704 104.626L83.5359 96.3131C89.2158 95.3595 94.5091 93.1426 99.2381 89.9336C104.282 96.7591 110.85 101.261 117.779 102.742L116.591 105.118C116.09 106.118 116.143 107.307 116.733 108.259C117.323 109.211 118.36 109.792 119.48 109.792H119.824C120.497 112.956 122.072 114.972 123.415 116.654C124.935 118.552 125.938 119.804 125.938 122.709C125.938 125.613 124.935 126.865 123.415 128.763C121.662 130.958 119.48 133.686 119.48 138.854C119.48 140.639 120.924 142.084 122.709 142.084C124.494 142.084 125.938 140.639 125.938 138.854C125.938 135.95 126.941 134.698 128.461 132.8C130.214 130.605 132.396 127.877 132.396 122.709C132.396 117.54 130.214 114.812 128.461 112.617C127.618 111.565 126.96 110.688 126.518 109.641C127.396 109.472 128.204 109.036 128.685 108.259C129.274 107.307 129.328 106.118 128.826 105.118L127.636 102.737C143.162 99.3268 155 80.4865 155 64.5832ZM38.75 96.875C20.8635 96.875 6.45823 75.6772 6.45823 58.125C6.45823 41.0529 19.8191 27.1746 36.6115 26.0497C33.8699 31.8761 32.2915 38.3537 32.2915 45.2082C32.2915 62.0802 41.5518 80.3206 55.8212 89.9702C50.553 94.372 44.6367 96.875 38.75 96.875ZM74.2707 103.333L77.5 99.029L80.7293 103.334H74.2707V103.333ZM77.5 90.4168C55.678 90.4168 38.75 66.116 38.75 45.2085C38.75 23.8406 56.1321 6.45854 77.5 6.45854C98.8679 6.45854 116.25 23.8406 116.25 45.2085C116.25 66.116 99.322 90.4168 77.5 90.4168ZM122.708 96.875C116.034 96.875 109.313 92.8114 104.292 85.9181C115.606 75.7281 122.708 59.959 122.708 45.2082C122.708 43.0279 122.501 40.9003 122.201 38.8015C122.373 38.7948 122.534 38.7497 122.708 38.7497C136.952 38.7497 148.541 50.3387 148.541 64.5829C148.542 79.1178 136.622 96.875 122.708 96.875Z" fill="#003360"/>
<path d="M63.1386 16.2877C53.2491 21.2135 46.6205 30.6867 45.4065 41.623C45.2109 43.3952 46.4882 44.9909 48.2604 45.1895C48.3803 45.2022 48.5032 45.2085 48.62 45.2085C50.2442 45.2085 51.6443 43.9882 51.8272 42.3356C52.7953 33.5878 58.1026 26.0131 66.0209 22.0651C67.6166 21.2704 68.2663 19.3311 67.4716 17.7354C66.6736 16.1427 64.7497 15.49 63.1386 16.2877Z" fill="#003360"/>
<path d="M20.2952 40.0651C15.5365 44.9246 12.916 51.3386 12.916 58.125C12.916 59.9099 14.3604 61.3543 16.1453 61.3543C17.9299 61.3543 19.3742 59.9099 19.3742 58.125C19.3742 53.0385 21.342 48.2292 24.9119 44.5807C26.1576 43.3068 26.1355 41.2633 24.8613 40.0145C23.5938 38.7721 21.5503 38.7909 20.2952 40.0651Z" fill="#003360"/>
</g>
<defs>
<clipPath id="clip0">
<rect width="155" height="155" fill="white"/>
</clipPath>
</defs>
</svg>
