<svg width="477" height="485" viewBox="0 0 477 485" fill="none" xmlns="http://www.w3.org/2000/svg">
<g filter="url(#filter0_d)">
<path d="M317.855 200.767C289.082 200.767 261.791 209.466 238.487 225.896C222.492 214.63 204.008 206.668 184.037 203.018L238.008 167.681C241.316 165.516 242.685 161.351 241.306 157.644L225.262 114.524C224.028 111.207 220.863 109.009 217.326 109.009H101.594C98.0572 109.009 94.8915 111.207 93.6586 114.524L77.6122 157.644C76.2337 161.348 77.6021 165.516 80.91 167.681L134.74 202.925C70.1823 214.483 21.0293 271.049 21.0293 338.881C21.0293 415.04 82.9885 477 159.146 477C187.886 477 215.235 468.32 238.55 451.884C261.011 467.695 288.363 477 317.855 477C394.013 477 455.972 415.04 455.972 338.881C455.972 262.725 394.013 200.767 317.855 200.767ZM37.9642 338.881C37.9642 272.06 92.3253 217.702 159.146 217.702C225.967 217.702 280.328 272.06 280.328 338.881C280.328 360.788 274.492 381.977 263.419 400.627C257.547 395.443 252.438 389.423 248.23 382.781C254.926 369.196 258.453 354.128 258.453 338.88C258.453 284.121 213.904 239.575 159.146 239.575C104.387 239.575 59.8385 284.121 59.8385 338.88C59.8385 393.638 104.387 438.19 159.146 438.19C177.043 438.19 194.303 433.464 209.532 424.468C214.153 430.305 219.239 435.753 224.724 440.772C205.19 453.404 182.706 460.064 159.146 460.064C92.3253 460.065 37.9642 405.702 37.9642 338.881ZM159.146 421.256C113.726 421.256 76.7734 384.302 76.7734 338.881C76.7734 293.462 113.725 256.511 159.146 256.511C173.909 256.511 187.765 260.434 199.76 267.262C186.648 288.817 179.74 313.385 179.74 338.881C179.74 365.093 187.079 389.619 199.81 410.521C187.46 417.556 173.555 421.256 159.146 421.256ZM238.505 316.796C240.466 323.826 241.518 331.232 241.518 338.882C241.518 346.366 240.474 353.791 238.489 360.944C236.533 353.92 235.483 346.523 235.483 338.882C235.483 331.388 236.517 323.952 238.505 316.796ZM277.191 267.252C289.542 260.214 303.447 256.511 317.857 256.511C363.276 256.511 400.229 293.46 400.229 338.881C400.229 384.3 363.277 421.256 317.857 421.256C303.093 421.256 289.235 417.33 277.24 410.502C290.347 388.941 297.263 364.334 297.263 338.881C297.263 312.671 289.92 288.15 277.191 267.252ZM202.122 152.13H116.933L159.636 127.28L202.122 152.13ZM211.441 125.945L217.157 141.306L190.894 125.945H211.441ZM107.479 125.945H128.26L101.734 141.38L107.479 125.945ZM113.94 169.065H204.979L159.46 198.868L113.94 169.065ZM317.855 460.065C251.035 460.065 196.674 405.702 196.674 338.881C196.674 316.938 202.511 295.783 213.588 277.141C219.458 282.323 224.564 288.34 228.77 294.982C222.075 308.568 218.547 323.633 218.547 338.881C218.547 393.639 263.096 438.191 317.854 438.191C372.613 438.191 417.162 393.639 417.162 338.881C417.162 284.123 372.613 239.576 317.854 239.576C299.956 239.576 282.695 244.302 267.464 253.298C262.846 247.465 257.764 242.019 252.282 237.002C271.806 224.367 294.261 217.7 317.854 217.7C384.675 217.7 439.036 272.059 439.036 338.88C439.037 405.702 384.676 460.065 317.855 460.065Z" fill="#003360"/>
<path d="M159.458 55.6492C164.135 55.6492 167.925 51.8592 167.925 47.1818V8.46746C167.925 3.79003 164.135 0 159.458 0C154.78 0 150.99 3.79003 150.99 8.46746V47.1818C150.99 51.8592 154.781 55.6492 159.458 55.6492Z" fill="#003360"/>
<path d="M65.4415 91.0233C67.0954 92.6773 69.262 93.5037 71.4296 93.5037C73.5962 93.5037 75.7639 92.6773 77.4167 91.0233C80.7247 87.7176 80.7247 82.3549 77.4178 79.0503L50.0431 51.6745C46.7363 48.3688 41.3747 48.3665 38.069 51.6745C34.761 54.9801 34.761 60.3429 38.0679 63.6474L65.4415 91.0233Z" fill="#003360"/>
<path d="M247.489 93.5037C249.655 93.5037 251.823 92.6773 253.477 91.0233L280.85 63.6474C284.157 60.3417 284.157 54.979 280.849 51.6745C277.543 48.3688 272.182 48.3665 268.875 51.6745L241.501 79.0503C238.195 82.356 238.195 87.7187 241.503 91.0233C243.154 92.6773 245.322 93.5037 247.489 93.5037Z" fill="#003360"/>
</g>
<defs>
<filter id="filter0_d" x="-4" y="0" width="485" height="485" filterUnits="userSpaceOnUse" color-interpolation-filters="sRGB">
<feFlood flood-opacity="0" result="BackgroundImageFix"/>
<feColorMatrix in="SourceAlpha" type="matrix" values="0 0 0 0 0 0 0 0 0 0 0 0 0 0 0 0 0 0 127 0" result="hardAlpha"/>
<feOffset dy="4"/>
<feGaussianBlur stdDeviation="2"/>
<feComposite in2="hardAlpha" operator="out"/>
<feColorMatrix type="matrix" values="0 0 0 0 0 0 0 0 0 0 0 0 0 0 0 0 0 0 0.25 0"/>
<feBlend mode="normal" in2="BackgroundImageFix" result="effect1_dropShadow"/>
<feBlend mode="normal" in="SourceGraphic" in2="effect1_dropShadow" result="shape"/>
</filter>
</defs>
</svg>
