<svg width="438" height="438" viewBox="0 0 438 438" fill="none" xmlns="http://www.w3.org/2000/svg">
<g clip-path="url(#clip0)">
<path d="M391.056 108.361C394.349 104.916 395.275 99.8291 393.4 95.4575C391.525 91.0742 387.212 88.2263 382.454 88.2263H291.811L305.594 58.6801C318.744 62.829 332.866 57.5081 338.457 45.5654C344.024 33.6228 339.019 19.3947 327.393 11.9759L330.346 5.64711C331.272 3.65471 330.417 1.29899 328.424 0.373105C326.432 -0.552775 324.076 0.302785 323.15 2.29519L320.197 8.62399C307.035 4.47511 292.924 9.79599 287.346 21.7387C281.767 33.6814 286.783 47.9094 298.409 55.3282L283.045 88.2145H55.5124C50.7423 88.2145 46.4411 91.0625 44.5659 95.4458C42.6907 99.8291 43.6166 104.916 46.9099 108.35L208.119 276.778V417.16H163.336C157.582 417.16 152.917 421.825 152.917 427.579C152.917 433.334 157.57 438.01 163.336 438.01H274.641C280.396 438.01 285.06 433.345 285.06 427.579C285.06 421.836 280.408 417.16 274.641 417.16H229.847V276.789L391.056 108.361ZM271.934 112.041L256.522 145.103H132.466L218.995 235.5L305.523 145.103H265.289L280.701 112.041H354.572L218.995 253.689L83.3943 112.041H271.934Z" fill="#003360"/>
</g>
<defs>
<clipPath id="clip0">
<rect width="438" height="438" fill="white"/>
</clipPath>
</defs>
</svg>
