<svg width="177" height="177" viewBox="0 0 177 177" fill="none" xmlns="http://www.w3.org/2000/svg">
<path d="M63.6093 60.8437C63.6093 56.2694 59.8868 52.5468 55.3125 52.5468C50.7381 52.5468 47.0156 56.2694 47.0156 60.8437C47.0156 65.4181 50.7381 69.1406 55.3125 69.1406C59.8868 69.1406 63.6093 65.4181 63.6093 60.8437ZM52.5468 60.8437C52.5468 59.3171 53.7858 58.0782 55.3125 58.0782C56.8391 58.0782 58.0781 59.3171 58.0781 60.8437C58.0781 62.3703 56.8391 63.6093 55.3125 63.6093C53.7858 63.6093 52.5468 62.3703 52.5468 60.8437Z" fill="#003360"/>
<path d="M152.109 60.8437C152.109 56.3054 149.363 52.3948 145.444 50.6939C146.83 46.9354 146.017 42.5437 143.003 39.5291C139.987 36.5146 135.595 35.6959 131.837 37.087C130.136 33.1681 126.226 30.4218 121.687 30.4218C120.324 30.4218 119.027 30.6956 117.819 31.1492C116.665 28.768 114.688 26.8597 112.254 25.8033C113.639 22.0448 112.827 17.653 109.811 14.6384C106.797 11.6239 102.408 10.8053 98.6498 12.1964C96.949 8.27751 93.0383 5.53125 88.5 5.53125C83.9616 5.53125 80.051 8.27751 78.3501 12.1964C74.5861 10.8053 70.197 11.6239 67.1853 14.6384C64.1708 17.653 63.3577 22.0448 64.7433 25.8033C62.3095 26.8597 60.3321 28.768 59.1788 31.1492C57.973 30.6956 56.6759 30.4218 55.3125 30.4218C50.7741 30.4218 46.8635 33.1681 45.1626 37.087C41.3986 35.6959 37.0095 36.5146 33.9978 39.5291C30.9833 42.5437 30.1702 46.9354 31.5558 50.6939C27.6368 52.3948 24.8906 56.3054 24.8906 60.8437C24.8906 65.3821 27.6368 69.2927 31.5558 70.9936C30.1702 74.7521 30.9833 79.1438 33.9978 82.1584C37.0095 85.1702 41.3986 85.9861 45.1626 84.6005C46.504 87.6924 49.2308 90.0293 52.5468 90.8895V96.7969C52.5468 102.699 53.9601 108.344 56.6372 113.437C55.5088 113.639 54.4081 114.026 53.4291 114.691C51.1419 116.234 49.7813 118.803 49.7813 121.561V138.409C49.7813 141.166 51.1419 143.735 53.4263 145.279C55.708 146.824 58.5981 147.137 61.159 146.114L69.5638 142.751C69.3093 144.009 69.1406 145.284 69.1406 146.578V168.703C69.1406 170.233 70.3768 171.468 71.9063 171.468H105.093C106.623 171.468 107.859 170.233 107.859 168.703V146.578C107.859 145.284 107.691 144.009 107.436 142.751L115.841 146.114C118.402 147.137 121.292 146.824 123.574 145.279C125.858 143.735 127.218 141.166 127.218 138.409V121.561C127.218 118.803 125.858 116.234 123.574 114.691C122.595 114.026 121.493 113.639 120.365 113.437C123.04 108.344 124.453 102.699 124.453 96.7969V90.8895C127.769 90.0293 130.496 87.6924 131.837 84.6005C135.595 85.9861 139.987 85.1702 143.003 82.1584C146.017 79.1438 146.83 74.7521 145.444 70.9936C149.363 69.2927 152.109 65.3821 152.109 60.8437ZM69.1406 30.4218C70.2579 30.4218 71.2701 29.7499 71.6961 28.7155C72.1247 27.6811 71.8868 26.4919 71.0959 25.7009C69.124 23.7291 69.124 20.5209 71.0959 18.5491C73.0677 16.5771 76.2759 16.5771 78.2478 18.5491C79.0415 19.3428 80.2308 19.5833 81.2623 19.1492C82.2967 18.7233 82.9687 17.7111 82.9687 16.5937C82.9687 13.5433 85.4495 11.0625 88.5 11.0625C91.5505 11.0625 94.0313 13.5433 94.0313 16.5937C94.0313 17.7111 94.7033 18.7233 95.7376 19.1492C96.772 19.5806 97.9612 19.3428 98.7521 18.5491C100.724 16.5771 103.932 16.5771 105.904 18.5491C107.876 20.5209 107.876 23.7291 105.904 25.7009C105.113 26.4919 104.875 27.6811 105.304 28.7155C105.73 29.7499 106.742 30.4218 107.859 30.4218C110.387 30.4218 112.501 32.1366 113.158 34.4541C112.503 35.2478 111.953 36.1302 111.538 37.087C107.773 35.6959 103.385 36.5146 100.373 39.5291C97.3583 42.5437 96.5452 46.9354 97.9308 50.6939C97.0264 51.0866 96.2023 51.637 95.4278 52.2592C93.5279 50.7216 91.1273 49.7813 88.5 49.7813C85.8726 49.7813 83.472 50.7216 81.5721 52.2592C80.7977 51.637 79.9735 51.0866 79.0692 50.6939C80.4548 46.9354 79.6417 42.5437 76.6271 39.5291C73.6126 36.5146 69.2208 35.6959 65.4623 37.087C65.0475 36.1302 64.4971 35.2478 63.8417 34.4541C64.4999 32.1366 66.6128 30.4218 69.1406 30.4218ZM105.304 72.9655C105.73 73.9999 106.742 74.6719 107.859 74.6719C110.91 74.6719 113.391 77.1526 113.391 80.2031C113.391 83.2537 110.91 85.7344 107.859 85.7344C106.742 85.7344 105.73 86.4064 105.304 87.4408C104.875 88.4752 105.113 89.6644 105.904 90.4553C107.876 92.4272 107.876 95.6353 105.904 97.6072C103.932 99.5791 100.724 99.5791 98.7521 97.6072C97.9612 96.8162 96.7748 96.5783 95.7376 97.0071C94.7033 97.433 94.0313 98.4452 94.0313 99.5625C94.0313 102.613 91.5505 105.093 88.5 105.093C85.4495 105.093 82.9687 102.613 82.9687 99.5625C82.9687 98.4452 82.2967 97.433 81.2623 97.0071C80.9194 96.8633 80.5598 96.7969 80.2031 96.7969C79.484 96.7969 78.776 97.079 78.2478 97.6072C76.2759 99.5791 73.0677 99.5791 71.0959 97.6072C69.124 95.6353 69.124 92.4272 71.0959 90.4553C71.8868 89.6644 72.1247 88.4752 71.6961 87.4408C71.2701 86.4064 70.2579 85.7344 69.1406 85.7344C66.0901 85.7344 63.6093 83.2537 63.6093 80.2031C63.6093 77.1526 66.0901 74.6719 69.1406 74.6719C70.2579 74.6719 71.2701 73.9999 71.6961 72.9655C72.1247 71.9311 71.8868 70.7419 71.0959 69.9509C69.124 67.9791 69.124 64.7709 71.0959 62.7991C73.0677 60.8271 76.2759 60.8271 78.2478 62.7991C79.0415 63.5928 80.2308 63.8333 81.2623 63.3992C82.2967 62.9733 82.9687 61.9611 82.9687 60.8437C82.9687 57.7933 85.4495 55.3125 88.5 55.3125C91.5505 55.3125 94.0313 57.7933 94.0313 60.8437C94.0313 61.9611 94.7033 62.9733 95.7376 63.3992C96.772 63.8306 97.9612 63.5928 98.7521 62.7991C100.724 60.8271 103.932 60.8271 105.904 62.7991C107.876 64.7709 107.876 67.9791 105.904 69.9509C105.113 70.7419 104.875 71.9311 105.304 72.9655ZM114.793 88.8014C116.013 89.7777 117.414 90.4829 118.922 90.8729V96.7969C118.922 103.479 116.795 109.776 112.796 115.072L98.6886 120.717C96.158 117.935 92.5488 116.157 88.5 116.157C84.4511 116.157 80.842 117.935 78.3086 120.717L64.2012 115.072C60.2048 109.776 58.0781 103.479 58.0781 96.7969V90.8729C59.5853 90.4802 60.9848 89.7777 62.2072 88.8014C62.9787 89.4237 63.825 89.9547 64.7433 90.353C63.3577 94.1114 64.1708 98.5033 67.1853 101.518C70.197 104.529 74.5861 105.348 78.3501 103.96C80.051 107.879 83.9616 110.625 88.5 110.625C93.0383 110.625 96.949 107.879 98.6498 103.96C102.408 105.348 106.8 104.529 109.815 101.518C112.829 98.5033 113.642 94.1114 112.256 90.353C113.174 89.9547 114.024 89.4237 114.793 88.8014ZM80.2031 129.984C80.2031 125.41 83.9256 121.687 88.5 121.687C93.0743 121.687 96.7968 125.41 96.7968 129.984C96.7968 134.558 93.0743 138.282 88.5 138.282C83.9256 138.282 80.2031 134.558 80.2031 129.984ZM49.7813 80.2031C49.7813 79.0858 49.1092 78.0736 48.0748 77.6477C47.0405 77.2163 45.8513 77.4569 45.0603 78.2479C43.0884 80.2197 39.8802 80.2197 37.9084 78.2479C35.9365 76.2759 35.9365 73.0678 37.9084 71.0959C38.6993 70.3049 38.9372 69.1157 38.5086 68.0813C38.0826 67.0471 37.0704 66.375 35.9531 66.375C32.9026 66.375 30.4218 63.8942 30.4218 60.8437C30.4218 57.7933 32.9026 55.3125 35.9531 55.3125C37.0704 55.3125 38.0826 54.6404 38.5086 53.6062C38.9372 52.5718 38.6993 51.3826 37.9084 50.5916C35.9365 48.6197 35.9365 45.4116 37.9084 43.4396C39.8802 41.4678 43.0884 41.4678 45.0603 43.4396C45.8541 44.2306 47.0433 44.4712 48.0748 44.0398C49.1092 43.6139 49.7813 42.6017 49.7813 41.4843C49.7813 38.4338 52.262 35.9532 55.3125 35.9532C58.363 35.9532 60.8437 38.4338 60.8437 41.4843C60.8437 42.6017 61.5158 43.6139 62.5501 44.0398C63.5845 44.4712 64.7709 44.2306 65.5646 43.4396C67.5365 41.4678 70.7447 41.4678 72.7165 43.4396C74.6885 45.4116 74.6885 48.6197 72.7165 50.5916C71.9256 51.3826 71.6878 52.5718 72.1164 53.6062C72.5423 54.6404 73.5546 55.3125 74.6718 55.3125C75.7836 55.3125 76.8512 55.6637 77.7582 56.2749C74.1325 55.1714 70.0422 56.0288 67.1853 58.8884C64.1708 61.903 63.3577 66.2948 64.7433 70.0533C60.8243 71.7541 58.0781 75.6647 58.0781 80.2031C58.0781 81.6772 58.3934 83.0711 58.9188 84.3571C57.9177 85.2255 56.6483 85.7344 55.3125 85.7344C52.262 85.7344 49.7813 83.2537 49.7813 80.2031ZM59.1069 140.978C58.2413 141.324 57.301 141.224 56.5266 140.698C55.755 140.179 55.3125 139.34 55.3125 138.409V121.561C55.3125 120.628 55.755 119.791 56.5266 119.27C57.2982 118.747 58.2385 118.645 59.1069 118.991L75.4711 125.538C74.9899 126.942 74.6718 128.422 74.6718 129.984C74.6718 131.547 74.9899 133.026 75.4711 134.429L59.1069 140.978ZM102.328 146.578V165.937H74.6718V146.578C74.6718 144.288 75.2582 142.043 76.334 140.043L78.3086 139.252C80.842 142.034 84.4511 143.813 88.5 143.813C92.5488 143.813 96.158 142.034 98.6913 139.252L100.666 140.043C101.742 142.043 102.328 144.288 102.328 146.578ZM121.687 121.561V138.409C121.687 139.34 121.245 140.179 120.474 140.698C119.702 141.221 118.762 141.324 117.893 140.978L101.529 134.432C102.01 133.026 102.328 131.547 102.328 129.984C102.328 128.422 102.01 126.942 101.529 125.54L117.893 118.994C118.759 118.648 119.699 118.747 120.474 119.273C121.245 119.791 121.687 120.628 121.687 121.561ZM141.047 66.375C139.929 66.375 138.917 67.0471 138.492 68.0813C138.063 69.1157 138.3 70.3049 139.092 71.0959C141.064 73.0678 141.064 76.2759 139.092 78.2479C137.12 80.2197 133.911 80.2197 131.94 78.2479C131.152 77.4569 129.962 77.2163 128.925 77.6477C127.891 78.0736 127.218 79.0858 127.218 80.2031C127.218 83.2537 124.738 85.7344 121.687 85.7344C120.352 85.7344 119.083 85.2255 118.081 84.3571C118.607 83.0711 118.922 81.6772 118.922 80.2031C118.922 75.6647 116.175 71.7541 112.256 70.0533C113.642 66.2948 112.829 61.903 109.815 58.8884C106.955 56.0288 102.865 55.1714 99.2417 56.2749C100.149 55.6637 101.216 55.3125 102.328 55.3125C103.445 55.3125 104.458 54.6404 104.883 53.6062C105.312 52.5718 105.075 51.3826 104.283 50.5916C102.311 48.6197 102.311 45.4116 104.283 43.4396C106.255 41.4678 109.464 41.4678 111.435 43.4396C112.229 44.2306 113.416 44.4712 114.45 44.0398C115.484 43.6139 116.156 42.6017 116.156 41.4843C116.156 38.4338 118.637 35.9532 121.687 35.9532C124.738 35.9532 127.218 38.4338 127.218 41.4843C127.218 42.6017 127.891 43.6139 128.925 44.0398C129.959 44.4712 131.149 44.2306 131.94 43.4396C133.911 41.4678 137.12 41.4678 139.092 43.4396C141.064 45.4116 141.064 48.6197 139.092 50.5916C138.3 51.3826 138.063 52.5718 138.492 53.6062C138.917 54.6404 139.929 55.3125 141.047 55.3125C144.098 55.3125 146.578 57.7933 146.578 60.8437C146.578 63.8942 144.098 66.375 141.047 66.375Z" fill="#003360" stroke="#003360"/>
<path d="M121.687 52.5468C117.113 52.5468 113.391 56.2694 113.391 60.8437C113.391 65.4181 117.113 69.1406 121.687 69.1406C126.262 69.1406 129.984 65.4181 129.984 60.8437C129.984 56.2694 126.262 52.5468 121.687 52.5468ZM121.687 63.6093C120.161 63.6093 118.922 62.3703 118.922 60.8437C118.922 59.3171 120.161 58.0782 121.687 58.0782C123.214 58.0782 124.453 59.3171 124.453 60.8437C124.453 62.3703 123.214 63.6093 121.687 63.6093Z" fill="#003360"/>
<path d="M88.5 71.9063C83.9256 71.9063 80.2031 75.6288 80.2031 80.2032C80.2031 84.7775 83.9256 88.5 88.5 88.5C93.0743 88.5 96.7968 84.7775 96.7968 80.2032C96.7968 75.6288 93.0743 71.9063 88.5 71.9063ZM88.5 82.9687C86.9733 82.9687 85.7343 81.7297 85.7343 80.2032C85.7343 78.6765 86.9733 77.4375 88.5 77.4375C90.0266 77.4375 91.2656 78.6765 91.2656 80.2032C91.2656 81.7297 90.0266 82.9687 88.5 82.9687Z" fill="#003360"/>
<path d="M88.5 44.25C93.0743 44.25 96.7968 40.5275 96.7968 35.9532C96.7968 31.3788 93.0743 27.6563 88.5 27.6563C83.9256 27.6563 80.2031 31.3788 80.2031 35.9532C80.2031 40.5275 83.9256 44.25 88.5 44.25ZM88.5 33.1875C90.0266 33.1875 91.2656 34.4265 91.2656 35.9532C91.2656 37.4797 90.0266 38.7187 88.5 38.7187C86.9733 38.7187 85.7343 37.4797 85.7343 35.9532C85.7343 34.4265 86.9733 33.1875 88.5 33.1875Z" fill="#003360"/>
</svg>
