<svg width="512" height="512" viewBox="0 0 512 512" fill="none" xmlns="http://www.w3.org/2000/svg">
<path d="M363.5 11C321 11 281.7 30.5 256 62.7C230.3 30.5 191 11 148.5 11C72.7 11 11 72.7 11 148.5C11 175.8 23.5 210.2 49.3 253.7C68.6 286.3 95.4 323.9 129 365.5C185.7 435.8 243.3 494.3 243.8 494.9C247.8 499 253.1 501 258.4 501C263.6 501 268.7 499.1 272.7 495.2C275 493 329.7 439.4 385.3 370.7C462.1 276 501 201.2 501 148.5C501 72.7 439.3 11 363.5 11ZM428.1 238.8C410.3 270.1 385.3 305.7 353.8 344.6C316.5 390.7 278.7 430.7 258.7 451.1C238.4 429.7 199.5 387.5 160.9 339.7C66.2 222.3 52 169.5 52 148.5C52 95.3 95.3 52 148.5 52C187.1 52 221.9 74.9 237.2 110.4C240.4 117.9 247.8 122.8 256 122.8C264.2 122.8 271.6 117.9 274.8 110.4C290.1 74.9 324.9 52 363.5 52C416.7 52 460 95.3 460 148.5C460 171.2 449.3 201.6 428.1 238.8Z" fill="#12325D"/>
<path d="M148.5 76C108.5 76 76 108.5 76 148.5C76 154.2 78.5 170.9 97.1 206.3C104.6 220.6 121.8 216.2 124.9 214.5C134.9 209.1 138.5 196.7 133.1 186.7C119.3 161.4 117.2 149.7 117 147.9C117.3 130.8 131.3 117 148.5 117C159.8 117 169 107.8 169 96.5C169 85.2 159.8 76 148.5 76V76Z" fill="#12325D"/>
</svg>
