<svg width="438" height="438" viewBox="0 0 438 438" fill="none" xmlns="http://www.w3.org/2000/svg">
<path d="M402.934 30.8616L393.405 43.3796C393.222 43.62 374.728 67.7193 343.741 91.4713C315.735 112.938 271.364 138.589 219 138.92C166.636 138.589 122.265 112.938 94.2586 91.4713C63.2719 67.7193 44.7785 43.62 44.6031 43.3908L35.0801 30.8257L0 71.0026L0.510713 76.4844C0.7357 78.8943 6.34071 136.185 35.4359 194.305C69.9839 263.32 123.02 303.813 189.918 312.761L157.253 345.427L219 407.174L280.747 345.427L248.082 312.761C314.981 303.813 368.016 263.32 402.564 194.305C431.659 136.186 437.264 78.8951 437.489 76.4844L438 71.0026L402.934 30.8616ZM26.7188 79.4204L34.2143 70.8375C43.2823 80.9217 58.2187 96.1063 78.039 111.375C79.6199 112.592 81.2068 113.784 82.7962 114.962L40.6868 139.273C31.8969 112.222 28.0901 89.3618 26.7188 79.4204ZM58.6978 183.441C55.376 176.847 52.3861 170.238 49.6846 163.713L106.58 130.864C119.799 138.789 133.246 145.363 146.799 150.534L96.3399 237.93C82.0092 222.926 69.4022 204.69 58.6978 183.441ZM117.033 256.442C116.628 256.136 116.233 255.811 115.83 255.5L171.855 158.461C183.297 161.342 194.758 163.225 206.167 164.067V288.583C172.356 286.426 142.419 275.646 117.033 256.442ZM219 370.88L193.547 345.427L219 319.975L244.453 345.427L219 370.88ZM321.265 256.216C295.813 275.562 265.775 286.417 231.832 288.583V164.068C243.241 163.226 254.703 161.343 266.145 158.462L322.171 255.503C321.867 255.738 321.569 255.984 321.265 256.216ZM379.614 182.816C368.844 204.334 356.129 222.776 341.657 237.927L291.201 150.534C304.754 145.363 318.2 138.789 331.419 130.864L388.317 163.715C385.7 170.029 382.814 176.424 379.614 182.816ZM397.324 139.28L355.203 114.961C356.793 113.784 358.379 112.591 359.96 111.374C379.781 96.1054 394.718 80.9209 403.785 70.8367L411.286 79.4264C409.924 89.3635 406.136 112.194 397.324 139.28Z" fill="#003360"/>
</svg>
