<svg width="373" height="373" viewBox="0 0 373 373" fill="none" xmlns="http://www.w3.org/2000/svg">
<g clip-path="url(#clip0)">
<path d="M351.371 0H263.224C254.611 0 247.635 6.97707 247.635 15.5835C247.635 24.19 254.611 31.1699 263.224 31.1699H304.139L205.807 129.504C185.867 117.303 162.45 110.256 137.416 110.256C64.9752 110.256 6.04102 169.187 6.04102 241.627C6.04102 314.073 64.9752 373.001 137.416 373.001C209.856 373.001 268.789 314.073 268.789 241.627C268.789 210.299 257.748 181.515 239.387 158.912L335.792 62.5094V109.147C335.792 117.754 342.769 124.733 351.37 124.733C359.981 124.733 366.958 117.754 366.958 109.147V15.5835C366.959 6.97707 359.982 0 351.371 0ZM137.416 328.474C89.5319 328.474 50.5711 289.513 50.5711 241.626C50.5711 193.746 89.5262 154.788 137.416 154.788C185.299 154.788 224.251 193.746 224.251 241.626C224.251 289.513 185.299 328.474 137.416 328.474Z" fill="#003360"/>
</g>
<defs>
<clipPath id="clip0">
<rect width="373" height="373" fill="white"/>
</clipPath>
</defs>
</svg>
