<svg width="438" height="438" viewBox="0 0 438 438" fill="none" xmlns="http://www.w3.org/2000/svg">
<path d="M241.029 182.454C259.036 165.858 270.354 141.982 270.354 115.488C270.354 109.089 269.678 102.853 268.395 96.8305C284.957 88.1389 296.018 70.6788 296.018 51.3281C296.018 23.0292 272.989 0 244.69 0C225.331 0 207.879 11.0527 199.179 27.6145C193.165 26.3399 186.92 25.6641 180.53 25.6641C130.998 25.6641 90.7058 65.9566 90.7058 115.488C90.7058 142.316 102.306 166.457 120.716 183.079C64.4857 194.149 18.9148 239.848 13.4569 297.121C6.07425 374.49 67.9075 438 142.034 438H154.866C164.704 438 173.695 434.287 180.513 428.188C187.579 434.527 196.621 438 206.194 438H214.056C281.433 438 340.426 388.503 346.739 322.238C353.138 255.212 307.233 194.183 241.029 182.454V182.454ZM244.69 25.6641C258.84 25.6641 270.354 37.1787 270.354 51.3281C270.354 59.8828 266.034 67.6932 259.319 72.3983C251.072 57.3677 238.642 44.9463 223.62 36.6996C228.316 29.9756 236.127 25.6641 244.69 25.6641ZM180.53 51.3281C211.507 51.3281 237.436 73.4078 243.398 102.656H231.858C198.101 102.656 166.192 87.8395 144.361 62.5262C154.661 55.4686 167.116 51.3281 180.53 51.3281ZM116.37 115.488C116.37 102.81 120.074 90.9962 126.447 81.03C153.069 110.894 191.386 128.32 231.858 128.32H243.424C237.53 158.048 211.566 180.504 180.53 180.504C145.148 180.504 116.37 151.341 116.37 115.488ZM154.866 361.008H142.034C137.603 361.008 133.3 360.443 129.202 359.382C151.316 353.668 167.698 333.556 167.698 309.68C167.698 307.353 167.527 305.06 167.219 302.81C180.47 294.555 188.743 278.985 191.856 256.341C192.789 249.574 197.99 244.664 204.226 244.664H205.792C212.995 244.664 218.718 251.867 218.128 259.318C216.425 281.073 212.371 291.27 206.819 299.902L198.033 313.546L213.337 318.944C229.48 324.65 244.442 332.752 257.941 343.094C248.523 354.044 234.57 361.008 219.026 361.008H206.194C196.339 361.008 187.34 364.729 180.53 370.837C173.712 364.729 164.712 361.008 154.866 361.008V361.008ZM116.37 335.344C102.212 335.344 90.7058 323.829 90.7058 309.68C90.7058 295.53 102.212 284.016 116.37 284.016C130.519 284.016 142.034 295.53 142.034 309.68C142.034 323.829 130.519 335.344 116.37 335.344ZM321.195 319.808C316.25 371.693 269.191 412.336 214.056 412.336H206.194C199.102 412.336 193.362 406.596 193.362 399.504C193.362 392.429 199.119 386.672 206.194 386.672H219.026C261.474 386.672 296.018 352.137 296.018 309.68H270.354C270.354 313.076 270.012 316.395 269.379 319.612C258.805 311.964 247.496 305.462 235.554 300.175C239.959 289.525 242.457 277.326 243.715 261.32C245.443 239.275 228.316 219 205.792 219H204.226C185.03 219 169.135 233.235 166.432 252.851C164.49 266.983 160.675 274.357 156.953 278.318C147.56 266.188 132.863 258.352 116.37 258.352C88.0624 258.352 65.0417 281.381 65.0417 309.68C65.0417 352.137 99.577 386.672 142.034 386.672H154.866C161.941 386.672 167.698 392.429 167.698 399.504C167.698 406.579 161.941 412.336 154.866 412.336H142.034C82.9809 412.336 33.0643 361.821 39.0012 299.551C43.9972 247.188 91.4329 206.168 146.996 206.168H219.026C277.754 206.168 327.166 257.231 321.195 319.808Z" fill="#003360"/>
<path d="M414.243 124.523C406.552 116.832 397.527 114.103 389.05 113.992C388.938 105.505 386.201 96.4802 378.519 88.7981C363.411 73.6906 339.073 74.3578 323.11 90.3209C306.591 106.849 308.533 129.801 311.219 161.573C311.681 166.988 313.375 189.666 313.375 189.666C313.375 189.666 336.053 191.36 341.468 191.822C371.53 194.363 395.816 196.827 412.712 179.923C428.675 163.96 429.351 139.63 414.243 124.523V124.523ZM394.567 161.778C386.483 169.862 370.05 168.476 343.633 166.244C341.562 166.073 339.458 165.893 337.319 165.713C337.319 165.645 337.225 164.593 337.225 164.593C337.08 162.847 336.934 161.119 336.789 159.409C334.411 131.255 333.53 116.199 341.263 108.465C346.721 103.007 354.848 101.425 360.366 106.943C366.628 113.205 361.153 123.958 360.631 124.933L378.151 142.376C378.262 142.316 389.606 136.174 396.099 142.667C401.864 148.441 399.7 156.645 394.567 161.778Z" fill="#003360"/>
</svg>
