<svg width="438" height="438" viewBox="0 0 438 438" fill="none" xmlns="http://www.w3.org/2000/svg">
<g clip-path="url(#clip0)">
<path d="M292.898 232.133C273.189 201.387 239.621 183.027 203.104 183.027C166.589 183.027 133.019 201.387 113.313 232.133L65.8209 306.222C57.9412 318.516 54.3055 332.714 55.3046 347.281C56.3038 361.85 61.8476 375.418 71.3346 386.522C80.8283 397.623 93.373 405.209 107.612 408.463C121.851 411.715 136.447 410.328 149.821 404.45L150.693 404.062C184.347 389.556 222.813 389.687 256.383 404.45C265.042 408.256 274.214 410.181 283.471 410.181C288.503 410.181 293.566 409.61 298.582 408.467C312.821 405.215 325.365 397.63 334.862 386.529C344.353 375.428 349.9 361.857 350.903 347.287C351.905 332.714 348.269 318.516 340.39 306.218L292.898 232.133ZM315.35 369.84C303.27 383.962 283.728 388.427 266.719 380.948C246.502 372.056 224.801 367.611 203.094 367.611C181.406 367.611 159.709 372.053 139.505 380.935L138.93 381.189C122.051 388.326 102.797 383.805 90.85 369.84C78.7832 355.715 77.4098 335.718 87.4348 320.076L134.93 245.988C149.894 222.643 175.378 208.705 203.104 208.705C230.829 208.705 256.316 222.643 271.284 245.988L318.772 320.073C328.801 335.722 327.424 355.722 315.35 369.84Z" fill="#003360"/>
<path d="M78.6133 232.036C92.7419 226.609 103.475 215.224 108.839 199.976C113.938 185.466 113.52 169.086 107.656 153.848C101.788 138.619 91.1145 126.188 77.6041 118.84C63.4053 111.124 47.8097 109.868 33.7045 115.305C5.32699 126.215 -7.69552 161.283 4.6787 193.493C14.5634 219.13 37.6176 235.314 60.9258 235.314C66.8773 235.314 72.8455 234.258 78.6133 232.036ZM28.6385 184.27C21.347 165.289 27.753 145.099 42.9275 139.264C45.6677 138.208 48.5649 137.684 51.5223 137.684C56.087 137.684 60.8021 138.93 65.3401 141.4C73.5005 145.834 80.0201 153.533 83.6959 163.074C87.3684 172.621 87.6959 182.7 84.6149 191.458C81.7912 199.485 76.3877 205.386 69.4036 208.07L69.3902 208.076C54.2357 213.917 35.9534 203.234 28.6385 184.27Z" fill="#003360"/>
<path d="M170.762 173.991C206.237 173.991 235.099 141.109 235.099 100.691C235.099 60.2638 206.237 27.375 170.762 27.375C135.29 27.375 106.432 60.2638 106.432 100.691C106.432 141.109 135.29 173.991 170.762 173.991ZM170.762 53.0491C192.079 53.0491 209.425 74.4224 209.425 100.691C209.425 126.95 192.079 148.317 170.762 148.317C149.446 148.317 132.106 126.95 132.106 100.691C132.106 74.4224 149.446 53.0491 170.762 53.0491Z" fill="#003360"/>
<path d="M281.873 191.999H281.877C287.334 193.81 292.901 194.676 298.445 194.676C324.316 194.676 349.529 175.845 359.149 146.906C364.69 130.248 364.326 112.634 358.124 97.3125C351.634 81.2758 339.607 69.6334 324.256 64.5273C308.904 59.4279 292.293 61.5532 277.492 70.5156C263.354 79.0803 252.52 92.9683 246.99 109.627C235.31 144.768 250.959 181.72 281.873 191.999V191.999ZM271.354 117.723C274.966 106.846 281.87 97.8839 290.796 92.4771C299.053 87.4746 308.062 86.2014 316.159 88.8915C324.252 91.5848 330.702 97.9942 334.324 106.943C338.237 116.614 338.404 127.929 334.785 138.806C327.571 160.514 307.467 173.446 289.973 167.635C272.493 161.82 264.139 139.431 271.354 117.723Z" fill="#003360"/>
<path d="M417.362 183.444L417.352 183.434C392.887 165.363 356.299 173.195 335.785 200.905C315.29 228.627 318.495 265.897 342.923 283.982C351.832 290.582 362.358 293.736 373.131 293.736C391.908 293.736 411.444 284.152 424.5 266.528C444.994 238.806 441.793 201.536 417.362 183.444V183.444ZM403.865 251.254C391.751 267.604 371.27 273.028 358.201 263.347C345.141 253.68 344.346 232.514 356.426 216.173C364.456 205.326 376.186 199.291 386.996 199.291C392.463 199.291 397.696 200.834 402.094 204.086C415.143 213.763 415.935 234.923 403.865 251.254V251.254Z" fill="#003360"/>
</g>
<defs>
<clipPath id="clip0">
<rect width="438" height="438" fill="white"/>
</clipPath>
</defs>
</svg>
