<svg width="438" height="438" viewBox="0 0 438 438" fill="none" xmlns="http://www.w3.org/2000/svg">
<path d="M362.954 255.91V222.818C362.954 218.094 359.125 214.263 354.4 214.263H347.885C343.787 189.389 322.143 170.35 296.125 170.35C281.399 170.35 267.834 162.335 260.706 149.401C259.305 146.879 256.728 145.233 253.85 145.023C250.97 144.81 248.182 146.069 246.431 148.36L241.758 154.475C234.161 164.415 222.156 170.35 209.645 170.35H142.062C116.046 170.35 94.4015 189.389 90.3029 214.263H83.7877C79.0629 214.263 75.233 218.094 75.233 222.818V255.91C59.8722 258.022 48 271.225 48 287.156V373.127C48 405.301 74.1748 431.475 106.348 431.475H331.84C364.014 431.475 390.188 405.301 390.188 373.127V287.156C390.188 271.225 378.314 258.022 362.954 255.91ZM142.062 187.46H209.645C226.151 187.46 242.038 180.202 252.883 167.873C263.676 180.173 279.372 187.46 296.124 187.46C312.673 187.46 326.601 198.885 330.436 214.263H107.749C111.585 198.885 125.514 187.46 142.062 187.46V187.46ZM373.078 373.127C373.078 395.866 354.579 414.366 331.839 414.366H106.347C83.608 414.366 65.1085 395.866 65.1085 373.127V287.156C65.1085 279.194 71.5861 272.717 79.548 272.717H180.597C185.322 272.717 189.151 268.886 189.151 264.162C189.151 259.438 185.322 255.607 180.597 255.607H92.3424V231.373H345.845V255.607H257.59C252.865 255.607 249.035 259.438 249.035 264.162C249.035 268.886 252.865 272.717 257.59 272.717H358.639C366.601 272.717 373.078 279.194 373.078 287.156V373.127Z" fill="#003360" stroke="#003360" stroke-width="5"/>
<path d="M219.465 299C194.947 299 175 318.946 175 343.465C175 367.983 194.946 387.93 219.465 387.93C243.983 387.93 263.929 367.983 263.929 343.465C263.929 318.946 243.982 299 219.465 299ZM219.465 370.82C204.381 370.82 192.109 358.548 192.109 343.464C192.109 328.38 204.381 316.109 219.465 316.109C234.548 316.109 246.82 328.38 246.82 343.464C246.819 358.548 234.547 370.82 219.465 370.82Z" fill="#003360" stroke="#003360" stroke-width="5"/>
<path d="M153.929 34.19L153.933 34.1903C169.933 35.113 184.994 41.8712 196.335 53.2126C207.772 64.6484 214.38 79.5718 215.356 95.2396L216.178 108.434L206.83 99.086L192.33 84.5854C192.33 84.5853 192.33 84.5851 192.329 84.585C190.941 83.1979 188.69 83.1979 187.302 84.585C185.915 85.9727 185.914 88.2241 187.303 89.6133L201.803 104.114L211.151 113.462L197.957 112.64C182.288 111.664 167.366 105.054 155.93 93.6179C144.589 82.2768 137.831 67.2171 136.907 51.2167L153.929 34.19ZM153.929 34.19C153.603 34.1715 153.283 34.1631 152.971 34.1631C148.678 34.1631 144.643 35.8297 141.594 38.8784M153.929 34.19L141.594 38.8784M141.594 38.8784C138.31 42.1629 136.639 46.5806 136.907 51.2157L141.594 38.8784ZM215.466 124.421V118.843L209.922 119.451C207.265 119.742 204.614 119.887 201.979 119.887C183.009 119.887 164.698 112.443 150.901 98.6466C138.322 86.0667 130.832 69.3701 129.808 51.6275L129.808 51.6273C129.426 45.0068 131.892 38.527 136.566 33.8531L136.567 33.8529C141.242 29.1772 147.723 26.7083 154.339 27.0941L154.342 27.0942C172.085 28.1177 188.782 35.6067 201.361 48.1865L201.362 48.187C204.406 51.2302 207.135 54.5027 209.555 57.9545L215.475 66.3983L218.438 56.5213C221.82 45.2515 227.97 34.8015 236.638 26.1334C249.217 13.5544 265.914 6.06449 283.657 5.04024L283.663 5.03991C290.274 4.65089 296.755 7.12167 301.432 11.7991L301.433 11.7994C306.106 16.472 308.573 22.9533 308.191 29.5743C307.167 47.318 299.678 64.0145 287.098 76.5943C273.303 90.3892 254.988 97.834 236.02 97.834C233.397 97.834 230.76 97.69 228.118 97.4016L222.575 96.7963V102.372V138.898C222.575 140.861 220.984 142.453 219.021 142.453C217.058 142.453 215.466 140.861 215.466 138.898V124.421ZM284.065 12.1382C268.066 13.0626 253.007 19.8205 241.666 31.1612C230.229 42.5969 223.621 57.5196 222.646 73.1876L221.825 86.3809L231.172 77.0338L249.206 58.9992C250.594 57.6118 252.845 57.6115 254.233 58.9983C255.622 60.3875 255.621 62.6389 254.234 64.0266L236.199 82.0616L226.85 91.4105L240.045 90.5874C255.711 89.6103 270.636 83.0022 282.071 71.5665L282.071 71.5663C293.413 60.2242 300.171 45.1651 301.094 29.1643L301.095 29.1638C301.362 24.5267 299.69 20.1091 296.406 16.8253L296.406 16.8246C293.127 13.5471 288.717 11.8651 284.065 12.1382Z" fill="#003360" stroke="#003360" stroke-width="10"/>
<path d="M359.641 144.914V139.914H354.641H343.144C341.181 139.914 339.59 138.322 339.59 136.359C339.59 134.396 341.182 132.804 343.145 132.804H354.642H359.642V127.804V116.307C359.642 114.344 361.234 112.752 363.197 112.752C365.16 112.752 366.751 114.344 366.751 116.307V127.804V132.804H371.751H383.249C385.212 132.804 386.804 134.396 386.804 136.359C386.804 138.322 385.212 139.914 383.249 139.914H371.751H366.751V144.914V156.411C366.751 158.374 365.159 159.966 363.196 159.966C361.233 159.966 359.641 158.374 359.641 156.411V144.914Z" fill="#003360" stroke="#003360" stroke-width="10"/>
<path d="M71.2484 102.96V97.9604H66.2484H54.75C52.787 97.9604 51.1953 96.3685 51.1953 94.4057C51.1953 92.4429 52.787 90.851 54.75 90.851H66.2484H71.2484V85.851V74.3535C71.2484 72.3907 72.84 70.7988 74.803 70.7988C76.766 70.7988 78.3577 72.3907 78.3577 74.3535V85.851V90.851H83.3577H94.8552C96.8182 90.851 98.4099 92.4429 98.4099 94.4057C98.4099 96.3685 96.8182 97.9604 94.8552 97.9604H83.3577H78.3577V102.96V114.459C78.3577 116.422 76.766 118.013 74.803 118.013C72.84 118.013 71.2484 116.422 71.2484 114.459V102.96Z" fill="#003360" stroke="#003360" stroke-width="10"/>
<path d="M118.529 145.403C118.529 147.366 116.938 148.958 114.975 148.958C113.011 148.958 111.42 147.366 111.42 145.403C111.42 143.44 113.011 141.848 114.975 141.848C116.938 141.848 118.529 143.44 118.529 145.403Z" fill="#003360" stroke="#003360" stroke-width="10"/>
<path d="M222.555 270.688C222.555 272.651 220.963 274.242 219 274.242C217.037 274.242 215.445 272.651 215.445 270.688C215.445 268.724 217.037 267.133 219 267.133C220.963 267.133 222.555 268.724 222.555 270.688Z" fill="#003360" stroke="#003360" stroke-width="10"/>
<path d="M347.094 75.0962C347.094 77.0594 345.502 78.6509 343.539 78.6509C341.576 78.6509 339.984 77.0594 339.984 75.0962C339.984 73.133 341.576 71.5415 343.539 71.5415C345.502 71.5415 347.094 73.133 347.094 75.0962Z" fill="#003360" stroke="#003360" stroke-width="10"/>
</svg>
