<svg width="438" height="438" viewBox="0 0 438 438" fill="none" xmlns="http://www.w3.org/2000/svg">
<path d="M384.337 157.516C372.217 158.673 362.718 169.472 362.718 182.092C362.718 187.348 358.441 191.625 353.185 191.625C340.558 191.625 329.765 201.125 328.609 213.252C327.965 219.986 330.197 226.713 334.727 231.689C339.258 236.678 345.718 239.532 352.452 239.532C384.529 239.532 410.624 213.436 410.624 181.36C410.624 174.626 407.77 168.165 402.781 163.634C397.799 159.104 391.065 156.88 384.337 157.516C384.344 157.516 384.344 157.516 384.337 157.516V157.516ZM393.577 173.763C395.746 175.734 396.937 178.431 396.937 181.36C396.937 205.888 376.98 225.844 352.452 225.844C349.523 225.844 346.827 224.653 344.856 222.484C342.885 220.321 341.961 217.495 342.242 214.552C342.734 209.371 347.545 205.313 353.192 205.313C365.989 205.313 376.406 194.897 376.406 182.092C376.406 176.446 380.464 171.635 385.645 171.142C388.587 170.875 391.407 171.792 393.577 173.763V173.763Z" fill="#003360"/>
<path d="M85.5469 184.781C92.2811 184.781 98.7416 181.927 103.272 176.938C107.803 171.956 110.027 165.236 109.391 158.501C108.234 146.374 97.4345 136.875 84.8146 136.875C79.5586 136.875 75.2812 132.598 75.2812 127.342C75.2812 114.715 65.7821 103.922 53.655 102.766C46.9139 102.136 40.2002 104.354 35.2179 108.884C30.2288 113.415 27.375 119.875 27.375 126.609C27.375 158.686 53.4702 184.781 85.5469 184.781ZM44.4228 119.013C46.339 117.275 48.7617 116.344 51.3281 116.344C51.6703 116.344 52.0125 116.357 52.3547 116.392C57.5354 116.891 61.5938 121.696 61.5938 127.342C61.5938 140.146 72.0099 150.563 84.8146 150.563C90.4607 150.563 95.2718 154.621 95.7646 159.802C96.0452 162.751 95.1144 165.571 93.1503 167.734C91.1724 169.903 88.476 171.094 85.5469 171.094C61.0189 171.094 41.0625 151.137 41.0625 126.609C41.0625 123.68 42.2533 120.984 44.4228 119.013V119.013Z" fill="#003360"/>
<path d="M214.428 114.927C218.733 120.149 225.063 123.325 231.79 123.646C232.167 123.66 232.543 123.674 232.927 123.674C239.257 123.674 245.382 121.148 249.879 116.659C260.863 105.675 266.919 91.0631 266.919 75.5278C266.919 59.9925 260.87 45.3811 249.879 34.3969C245.115 29.6336 238.497 27.1151 231.797 27.4094C225.077 27.7311 218.746 30.9066 214.435 36.1215C206.681 45.5111 207.591 59.8625 216.522 68.7867C220.238 72.5029 220.238 78.5528 216.522 82.2621C207.584 91.1863 206.667 105.538 214.428 114.927V114.927ZM226.192 59.1097C222.202 55.1197 221.669 48.844 224.981 44.8336C226.87 42.5546 229.518 41.2132 232.441 41.0764C232.605 41.0627 232.776 41.0627 232.947 41.0627C235.685 41.0627 238.237 42.1166 240.195 44.0671C248.592 52.4712 253.218 63.6402 253.218 75.5278C253.218 87.4154 248.592 98.5844 240.188 106.982C238.114 109.055 235.342 110.157 232.434 109.979C229.512 109.842 226.863 108.508 224.974 106.222C221.662 102.212 222.196 95.9427 226.185 91.9528C235.247 82.8917 235.247 68.1571 226.192 59.1097V59.1097Z" fill="#003360"/>
<path d="M362.719 136.875C390.135 136.875 410.625 107.967 410.625 82.125C410.625 44.676 368.317 16.0349 366.517 14.8373C364.218 13.3043 361.227 13.3043 358.927 14.8373C357.121 16.0349 314.812 44.676 314.812 82.125C314.812 107.967 335.303 136.875 362.719 136.875ZM369.843 112.354C372.163 104.525 372.984 94.8612 372.984 88.9688C372.984 87.4426 372.827 85.5537 372.485 83.0421C371.978 79.2985 374.6 75.8493 378.343 75.3428C382.073 74.809 385.536 77.4576 386.042 81.2011C386.473 84.3424 386.672 86.813 386.672 88.9688C386.672 96.1068 385.7 107.016 382.969 116.241C382.087 119.218 379.363 121.148 376.406 121.148C375.763 121.148 375.113 121.052 374.463 120.861C370.842 119.786 368.769 115.981 369.843 112.354V112.354ZM339.388 81.2079C339.895 77.4576 343.371 74.8296 347.088 75.3497C350.831 75.8561 353.459 79.3054 352.946 83.0489C352.611 85.5537 352.453 87.4426 352.453 88.9688C352.453 94.8612 353.274 104.525 355.594 112.354C356.669 115.981 354.595 119.786 350.975 120.861C350.325 121.052 349.675 121.148 349.024 121.148C346.068 121.148 343.344 119.218 342.468 116.248C339.737 107.023 338.766 96.1068 338.766 88.9688C338.766 86.813 338.964 84.3424 339.388 81.2079V81.2079Z" fill="#003360"/>
<path d="M117.904 116.604C119.868 116.604 121.88 116.501 123.913 116.289C137.505 114.886 150.473 108.898 159.5 99.8711C185.986 73.3926 176.315 23.2279 175.891 21.0995C175.35 18.3894 173.229 16.2746 170.526 15.734C168.39 15.3028 118.233 5.63261 91.7541 32.1248C82.7272 41.1517 76.7389 54.1206 75.3359 67.7123C73.8029 82.5701 77.9092 95.7101 86.9087 104.71C94.6764 112.477 105.524 116.604 117.904 116.604ZM131.886 73.5568C134.172 70.5456 138.463 69.9639 141.474 72.2565C144.478 74.5423 145.067 78.8402 142.774 81.8446C140.858 84.3631 139.25 86.252 137.724 87.7781C131.687 93.8143 121.846 101.822 112.354 106.181C111.43 106.605 110.458 106.804 109.5 106.804C106.913 106.804 104.429 105.326 103.279 102.821C101.705 99.3851 103.204 95.32 106.639 93.739C114.496 90.1255 123.085 83.0491 128.046 78.0874C129.128 77.0129 130.346 75.5689 131.886 73.5568V73.5568ZM84.2328 82.1526C88.168 71.8459 97.2633 60.4853 103.854 53.8947C105.38 52.3686 107.269 50.7603 109.787 48.8441C112.792 46.5582 117.083 47.14 119.375 50.1444C121.661 53.1488 121.08 57.4466 118.075 59.7325C116.063 61.2655 114.619 62.4836 113.531 63.565C107.447 69.6491 99.9803 79.2645 97.0169 87.0253C95.9767 89.756 93.3761 91.4327 90.6249 91.4327C89.8105 91.4327 88.9892 91.289 88.1885 90.981C84.6503 89.6396 82.8777 85.684 84.2328 82.1526V82.1526Z" fill="#003360"/>
<path d="M139.606 152.698C138.395 161.157 140.776 169.082 146.142 174.44C150.584 178.882 156.791 181.284 163.607 181.284C165.01 181.284 166.44 181.182 167.885 180.976C175.734 179.854 183.481 175.816 189.696 169.602C196.827 162.471 201.077 152.356 201.973 140.359C202.411 134.5 200.255 128.731 196.06 124.529C191.865 120.327 186.062 118.164 180.231 118.616C168.234 119.513 158.118 123.763 150.987 130.894C144.766 137.101 140.729 144.848 139.606 152.698Z" fill="#003360"/>
<path d="M275.687 162.758C281.902 168.972 289.649 173.01 297.499 174.133C298.943 174.338 300.373 174.441 301.776 174.441C308.592 174.441 314.8 172.045 319.241 167.597C324.6 162.238 326.981 154.313 325.777 145.854C324.655 137.998 320.617 130.25 314.403 124.043C307.271 116.912 297.156 112.662 285.159 111.765C279.267 111.341 273.525 113.476 269.33 117.678C265.134 121.881 262.972 127.65 263.417 133.508C264.306 145.512 268.556 155.627 275.687 162.758Z" fill="#003360"/>
<path d="M417.469 260.063H305.799C322.43 240.298 316.304 207.496 298.778 189.962C272.292 163.477 222.134 173.147 220.006 173.571C217.296 174.112 215.181 176.233 214.641 178.937C214.216 181.058 204.546 231.223 231.031 257.708C231.88 258.557 232.913 259.262 233.837 260.056H178.656C177.431 257.489 175.843 255.121 173.831 253.109C172.031 251.309 171.039 248.914 171.039 246.368C171.039 243.822 172.031 241.427 173.831 239.627C182.762 230.696 183.673 216.352 175.919 206.962C171.614 201.74 165.283 198.565 158.556 198.243C151.863 197.942 145.238 200.474 140.475 205.23C125.87 219.835 120.368 240.51 125.165 260.049H93.1366C96.3737 254.403 98.2968 247.532 98.2968 240.079C98.2968 229.984 94.1495 219.835 86.2997 210.719C82.4603 206.264 76.8622 203.711 70.9218 203.711C64.9814 203.711 59.3832 206.271 55.5507 210.719C47.7009 219.835 43.5536 229.984 43.5536 240.079C43.5536 247.532 45.4836 254.403 48.7138 260.049H20.5312C16.7535 260.049 13.6875 263.115 13.6875 266.893C13.6875 323.497 59.7391 369.549 116.344 369.549V417.455C116.344 421.233 119.41 424.299 123.188 424.299H314.812C318.59 424.299 321.656 421.233 321.656 417.455V369.549C378.261 369.549 424.312 323.497 424.312 266.893C424.312 263.129 421.246 260.063 417.469 260.063V260.063ZM271.163 207.988C273.449 204.991 277.74 204.409 280.758 206.695C283.283 208.618 285.165 210.226 286.685 211.746C292.687 217.754 300.666 227.548 305.046 237.013C306.634 240.442 305.135 244.514 301.707 246.101C300.776 246.532 299.797 246.731 298.839 246.731C296.259 246.731 293.782 245.26 292.625 242.762C288.991 234.912 281.942 226.364 277.008 221.423C275.933 220.348 274.489 219.13 272.463 217.583C269.452 215.291 268.87 210.993 271.163 207.988ZM249.051 230.101C252.062 227.808 256.353 228.39 258.646 231.394C260.193 233.42 261.411 234.864 262.485 235.945C267.331 240.784 275.742 247.744 283.523 251.419C286.945 253.034 288.402 257.113 286.787 260.535C285.617 263.005 283.16 264.456 280.594 264.456C279.608 264.456 278.616 264.244 277.671 263.799C268.316 259.378 258.694 251.515 252.808 245.629C251.289 244.11 249.681 242.228 247.757 239.702C245.465 236.684 246.046 232.393 249.051 230.101V230.101ZM150.152 214.921C152.219 212.848 155.066 211.746 157.899 211.924C160.821 212.06 163.47 213.395 165.359 215.688C168.671 219.691 168.137 225.96 164.147 229.957C155.942 238.163 155.25 250.988 161.916 260.063H139.428C134.254 244.199 138.175 226.898 150.152 214.921ZM321.656 355.875H116.344C69.5873 355.875 31.1391 319.624 27.6351 273.75H410.365C406.861 319.624 368.413 355.875 321.656 355.875Z" fill="#003360"/>
<path d="M53.6211 301.125H384.38C388.157 301.125 391.223 298.059 391.223 294.281C391.223 290.504 388.157 287.438 384.38 287.438H53.6211C49.8433 287.438 46.7773 290.504 46.7773 294.281C46.7773 298.059 49.8433 301.125 53.6211 301.125V301.125Z" fill="#003360"/>
</svg>
