<svg width="438" height="438" viewBox="0 0 438 438" fill="none" xmlns="http://www.w3.org/2000/svg">
<path d="M307.969 30.7969H277.172V13.6875C277.172 10.9649 276.09 8.35379 274.165 6.42861C272.24 4.50343 269.629 3.42188 266.906 3.42188C264.184 3.42188 261.573 4.50343 259.647 6.42861C257.722 8.35379 256.641 10.9649 256.641 13.6875V30.7969H181.359V13.6875C181.359 10.9649 180.278 8.35379 178.353 6.42861C176.427 4.50343 173.816 3.42188 171.094 3.42188C168.371 3.42188 165.76 4.50343 163.835 6.42861C161.91 8.35379 160.828 10.9649 160.828 13.6875V30.7969H85.5469V13.6875C85.5469 10.9649 84.4653 8.35379 82.5401 6.42861C80.615 4.50343 78.0039 3.42188 75.2812 3.42188C72.5586 3.42188 69.9475 4.50343 68.0224 6.42861C66.0972 8.35379 65.0156 10.9649 65.0156 13.6875V30.7969H34.2188C26.0537 30.8059 18.2256 34.0535 12.4521 39.8271C6.6785 45.6006 3.43093 53.4287 3.42188 61.5938V403.781C3.43093 411.946 6.6785 419.774 12.4521 425.548C18.2256 431.321 26.0537 434.569 34.2188 434.578H307.969C316.134 434.569 323.962 431.321 329.735 425.548C335.509 419.774 338.757 411.946 338.766 403.781V61.5938C338.757 53.4287 335.509 45.6006 329.735 39.8271C323.962 34.0535 316.134 30.8059 307.969 30.7969ZM23.9531 61.5938C23.9561 58.872 25.0386 56.2626 26.9631 54.3381C28.8876 52.4136 31.497 51.3311 34.2188 51.3281H65.0156V68.4375C65.0156 71.1601 66.0972 73.7712 68.0224 75.6964C69.9475 77.6216 72.5586 78.7031 75.2812 78.7031C78.0039 78.7031 80.615 77.6216 82.5401 75.6964C84.4653 73.7712 85.5469 71.1601 85.5469 68.4375V51.3281H160.828V68.4375C160.828 71.1601 161.91 73.7712 163.835 75.6964C165.76 77.6216 168.371 78.7031 171.094 78.7031C173.816 78.7031 176.427 77.6216 178.353 75.6964C180.278 73.7712 181.359 71.1601 181.359 68.4375V51.3281H256.641V68.4375C256.641 71.1601 257.722 73.7712 259.647 75.6964C261.573 77.6216 264.184 78.7031 266.906 78.7031C269.629 78.7031 272.24 77.6216 274.165 75.6964C276.09 73.7712 277.172 71.1601 277.172 68.4375V51.3281H307.969C310.69 51.3311 313.3 52.4136 315.224 54.3381C317.149 56.2626 318.231 58.872 318.234 61.5938V99.2344H23.9531V61.5938ZM307.969 414.047H34.2188C31.497 414.044 28.8876 412.961 26.9631 411.037C25.0386 409.112 23.9561 406.503 23.9531 403.781V119.766H318.234V403.781C318.231 406.503 317.149 409.112 315.224 411.037C313.3 412.961 310.69 414.044 307.969 414.047V414.047Z" fill="#003360"/>
<path d="M273.75 318.234H54.75C52.0274 318.234 49.4163 319.316 47.4911 321.241C45.5659 323.166 44.4844 325.777 44.4844 328.5C44.4844 331.223 45.5659 333.834 47.4911 335.759C49.4163 337.684 52.0274 338.766 54.75 338.766H273.75C276.473 338.766 279.084 337.684 281.009 335.759C282.934 333.834 284.016 331.223 284.016 328.5C284.016 325.777 282.934 323.166 281.009 321.241C279.084 319.316 276.473 318.234 273.75 318.234Z" fill="#003360"/>
<path d="M219 359.297H54.75C52.0274 359.297 49.4163 360.378 47.4911 362.304C45.5659 364.229 44.4844 366.84 44.4844 369.562C44.4844 372.285 45.5659 374.896 47.4911 376.821C49.4163 378.747 52.0274 379.828 54.75 379.828H219C221.723 379.828 224.334 378.747 226.259 376.821C228.184 374.896 229.266 372.285 229.266 369.562C229.266 366.84 228.184 364.229 226.259 362.304C224.334 360.378 221.723 359.297 219 359.297V359.297Z" fill="#003360"/>
<path d="M287.438 263.484H266.198C270.326 255.418 271.403 246.133 269.232 237.336C267.06 228.539 261.787 220.821 254.38 215.602C246.973 210.383 237.931 208.013 228.916 208.927C219.902 209.842 211.52 213.98 205.312 220.581C199.105 213.98 190.723 209.842 181.709 208.927C172.694 208.013 163.652 210.383 156.245 215.602C148.838 220.821 143.565 228.539 141.393 237.336C139.222 246.133 140.299 255.418 144.427 263.484H105.479C105.872 262.386 106.075 261.229 106.078 260.062V241.519C113.954 239.276 120.886 234.529 125.825 227.997C130.764 221.465 133.442 213.502 133.453 205.312C133.453 195.882 129.827 180.659 124.635 168.294C116.834 149.716 107.137 140.297 95.8125 140.297C84.4878 140.297 74.7911 149.716 66.99 168.294C61.7982 180.659 58.1719 195.882 58.1719 205.312C58.1834 213.502 60.8611 221.465 65.8001 227.997C70.7391 234.529 77.6707 239.276 85.5469 241.519V260.062C85.5501 261.229 85.7526 262.386 86.1457 263.484H54.75C52.0274 263.484 49.4163 264.566 47.4911 266.491C45.5659 268.416 44.4844 271.027 44.4844 273.75C44.4844 276.473 45.5659 279.084 47.4911 281.009C49.4163 282.934 52.0274 284.016 54.75 284.016H287.438C290.16 284.016 292.771 282.934 294.696 281.009C296.622 279.084 297.703 276.473 297.703 273.75C297.703 271.027 296.622 268.416 294.696 266.491C292.771 264.566 290.16 263.484 287.438 263.484ZM78.7031 205.312C78.7031 199.97 80.9 188.964 85.0986 178.267C89.5334 166.967 93.9904 161.927 95.8125 160.934C97.6346 161.928 102.092 166.967 106.526 178.267C110.725 188.964 112.922 199.97 112.922 205.312C112.922 209.85 111.119 214.202 107.911 217.411C104.702 220.619 100.35 222.422 95.8125 222.422C91.2748 222.422 86.923 220.619 83.7143 217.411C80.5057 214.202 78.7031 209.85 78.7031 205.312V205.312ZM232.688 229.266C236.071 229.266 239.379 230.269 242.193 232.149C245.007 234.029 247.2 236.701 248.495 239.828C249.789 242.954 250.128 246.394 249.468 249.713C248.808 253.032 247.178 256.08 244.786 258.473C242.393 260.866 239.344 262.495 236.025 263.156C232.706 263.816 229.266 263.477 226.14 262.182C223.014 260.887 220.342 258.694 218.462 255.88C216.582 253.067 215.578 249.759 215.578 246.375C215.583 241.839 217.388 237.49 220.595 234.283C223.803 231.075 228.151 229.271 232.688 229.266ZM160.828 246.375C160.828 242.991 161.832 239.683 163.712 236.87C165.592 234.056 168.264 231.863 171.39 230.568C174.516 229.273 177.956 228.934 181.275 229.594C184.594 230.255 187.643 231.884 190.036 234.277C192.428 236.67 194.058 239.718 194.718 243.037C195.378 246.356 195.039 249.796 193.744 252.922C192.45 256.049 190.257 258.721 187.443 260.601C184.629 262.481 181.321 263.484 177.938 263.484C173.401 263.479 169.053 261.675 165.845 258.467C162.638 255.26 160.833 250.911 160.828 246.375V246.375Z" fill="#003360"/>
<path d="M434.565 109.243C434.535 108.297 434.384 107.358 434.116 106.45L406.808 10.8645C406.195 8.71971 404.9 6.83295 403.119 5.48973C401.338 4.14651 399.168 3.41992 396.938 3.41992C394.707 3.41992 392.537 4.14651 390.756 5.48973C388.975 6.83295 387.68 8.71971 387.067 10.8645L359.759 106.447C359.471 107.44 359.315 108.466 359.297 109.5V403.781C359.306 411.946 362.554 419.774 368.327 425.548C374.101 431.322 381.929 434.569 390.094 434.578H403.781C411.946 434.569 419.774 431.322 425.548 425.548C431.321 419.774 434.569 411.946 434.578 403.781V109.5C434.578 109.414 434.567 109.329 434.565 109.243ZM414.047 345.609H379.828V119.766H414.047V345.609ZM396.938 51.0553L410.703 99.2344H383.172L396.938 51.0553ZM403.781 414.047H390.094C387.372 414.044 384.763 412.961 382.838 411.037C380.914 409.112 379.831 406.503 379.828 403.781V366.141H414.047V403.781C414.044 406.503 412.961 409.112 411.037 411.037C409.112 412.961 406.503 414.044 403.781 414.047V414.047Z" fill="#003360"/>
</svg>
